<?xml version="1.0" standalone="no"?>
<!DOCTYPE svg PUBLIC "-//W3C//DTD SVG 20010904//EN"
 "http://www.w3.org/TR/2001/REC-SVG-20010904/DTD/svg10.dtd">
<svg version="1.0" xmlns="http://www.w3.org/2000/svg"
 width="1024.000000pt" height="740.000000pt" viewBox="0 0 1024.000000 740.000000"
 preserveAspectRatio="xMidYMid meet">

<g transform="translate(0.000000,740.000000) scale(0.100000,-0.100000)"
fill="#000000" stroke="none">
<path d="M1956 6949 c-15 -12 -26 -30 -26 -44 0 -38 48 -182 91 -272 59 -124
135 -216 406 -494 136 -140 265 -277 285 -304 107 -146 122 -339 41 -505 -43
-88 -148 -199 -235 -248 -66 -37 -82 -61 -73 -108 5 -30 25 -48 147 -141 513
-386 834 -891 932 -1464 58 -337 5 -701 -145 -1001 -107 -213 -225 -360 -453
-563 -131 -117 -128 -104 -137 -480 -10 -419 -16 -524 -45 -775 -29 -262 -29
-275 -4 -300 29 -29 83 -27 108 5 38 48 80 485 92 964 9 327 13 378 28 402 9
15 55 61 102 102 243 211 415 452 514 718 125 339 148 674 70 1057 -68 339
-248 710 -491 1012 -118 148 -350 368 -475 453 l-37 25 40 28 c71 49 157 153
199 238 53 108 70 181 70 296 0 149 -32 250 -113 370 -53 77 -228 268 -389
425 -218 213 -287 313 -353 510 -14 44 -35 88 -47 98 -27 23 -69 22 -102 -4z"/>
<path d="M8114 6661 c-50 -30 -81 -119 -55 -160 7 -10 -24 -64 -109 -191 -130
-195 -143 -210 -171 -210 -11 0 -58 32 -105 72 -61 52 -84 78 -84 95 0 38 -25
87 -59 116 -25 21 -43 27 -79 27 -92 0 -148 -62 -139 -154 4 -50 3 -52 -83
-181 -80 -119 -92 -132 -128 -143 -54 -16 -82 -53 -82 -107 0 -52 27 -89 75
-105 75 -25 142 22 153 107 6 39 24 75 87 170 73 110 83 121 115 126 19 3 42
7 52 9 18 3 181 -139 173 -151 -11 -19 18 -82 52 -111 33 -29 41 -32 86 -27
43 4 56 10 84 41 32 34 34 41 32 94 l-3 57 122 183 c91 136 127 182 142 182
72 0 130 63 130 140 0 110 -114 177 -206 121z"/>
<path d="M1025 6408 l-26 -23 -6 -1135 c-5 -1038 -4 -1138 11 -1174 9 -21 65
-118 126 -216 140 -228 207 -357 375 -720 144 -311 361 -751 425 -860 52 -89
113 -169 209 -275 235 -257 306 -467 300 -875 -2 -102 0 -195 4 -207 9 -25 39
-36 83 -31 22 2 34 12 46 38 15 30 18 64 18 225 0 298 -30 453 -126 650 -58
121 -113 199 -235 332 -44 48 -107 131 -140 183 -82 131 -237 439 -429 855
-214 463 -309 644 -478 909 l-32 50 0 1123 0 1124 -25 24 c-30 31 -66 32 -100
3z"/>
<path d="M3833 5341 c-83 -21 -159 -88 -197 -171 -19 -43 -20 -63 -21 -560 l0
-515 45 -85 c49 -91 78 -111 100 -71 7 14 10 195 10 587 0 552 0 567 20 599
44 71 -191 65 2627 63 2367 -3 2540 -4 2562 -20 13 -9 32 -30 42 -45 18 -27
19 -102 19 -2136 0 -2346 6 -2148 -70 -2187 -39 -20 -55 -20 -2560 -20 l-2521
0 -40 21 c-29 14 -46 32 -60 62 -18 40 -19 74 -19 643 0 608 -5 787 -23 781
-5 -1 -36 -52 -68 -113 l-59 -110 0 -603 c-1 -588 0 -603 20 -649 27 -62 101
-136 161 -161 47 -21 51 -21 2609 -21 l2562 0 52 23 c62 29 118 84 148 146
l23 46 0 2130 c0 2075 0 2131 -19 2180 -26 66 -94 137 -159 165 l-52 23 -2550
3 c-1402 2 -2564 0 -2582 -5z"/>
<path d="M8165 4955 c-101 -35 -126 -170 -45 -239 61 -51 144 -43 200 20 24
28 30 44 30 82 0 106 -87 170 -185 137z"/>
<path d="M8604 4950 c-32 -13 -71 -65 -78 -104 -5 -26 -1 -49 13 -81 16 -37
29 -50 67 -66 62 -28 106 -19 156 31 34 33 38 43 38 86 0 58 -26 106 -69 129
-32 16 -93 19 -127 5z"/>
<path d="M5078 4823 c-24 -26 -409 -648 -818 -1323 -92 -151 -207 -340 -257
-420 -49 -80 -92 -149 -95 -155 -3 -5 -16 -80 -27 -165 -12 -85 -24 -165 -27
-177 -6 -31 8 -29 27 5 9 15 81 131 161 257 79 127 190 304 245 395 55 91 155
255 223 365 68 110 240 391 382 625 143 234 265 431 272 438 11 11 31 8 117
-17 371 -108 687 -159 1049 -168 385 -10 814 48 1175 159 123 38 130 39 143
21 7 -10 54 -85 104 -168 266 -435 704 -1149 882 -1435 112 -179 216 -347 232
-375 l29 -50 3 139 3 140 -47 80 c-26 45 -162 268 -302 496 -380 620 -485 790
-652 1065 -83 138 -161 260 -173 273 -28 30 -61 28 -187 -13 -332 -107 -670
-162 -1051 -172 -252 -6 -423 4 -667 43 -163 25 -426 86 -583 134 -53 17 -105
30 -116 30 -10 0 -31 -12 -45 -27z"/>
<path d="M6820 4259 c-95 -12 -222 -56 -292 -101 -139 -90 -250 -226 -293
-361 -30 -93 -50 -119 -118 -153 -69 -36 -84 -72 -67 -163 12 -67 12 -70 -11
-108 -24 -38 -27 -79 -16 -253 2 -35 2 -35 -42 -35 -38 -1 -48 -6 -77 -39 -37
-43 -48 -87 -42 -179 3 -56 1 -62 -17 -65 -17 -2 -25 8 -44 52 -28 68 -88 138
-149 174 -41 23 -58 27 -127 27 -71 0 -89 -4 -155 -36 -100 -48 -204 -134
-322 -266 -53 -59 -112 -123 -131 -141 l-35 -34 -28 72 c-29 74 -51 96 -84 85
-36 -12 -42 -39 -20 -96 11 -29 19 -54 17 -55 -1 -1 -31 4 -67 12 -83 17 -132
5 -177 -42 -87 -92 -61 -219 85 -417 103 -139 164 -180 268 -178 l62 1 22 -73
c35 -117 87 -204 170 -288 159 -161 390 -221 656 -170 l111 21 61 -25 c84 -34
98 -33 119 11 17 34 26 40 128 75 148 53 290 124 405 203 100 68 110 69 110
10 0 -44 32 -71 68 -58 17 6 28 18 30 33 6 39 -8 110 -24 126 -14 14 -8 23 57
93 177 190 257 348 298 597 26 154 19 145 272 320 215 149 321 350 321 605 1
232 -65 401 -216 558 -141 148 -318 238 -516 262 -93 11 -97 11 -190 -1z m287
-183 c253 -86 404 -243 464 -486 25 -97 22 -201 -6 -311 -40 -154 -104 -235
-282 -357 -228 -157 -261 -200 -287 -372 -42 -287 -178 -496 -449 -688 -237
-168 -408 -239 -596 -249 -95 -5 -112 -3 -155 16 -27 11 -55 21 -62 21 -18 0
-46 -44 -42 -67 3 -16 -6 -18 -80 -21 -155 -5 -277 42 -385 149 -116 115 -175
281 -131 367 18 35 182 245 294 375 28 32 50 67 50 78 0 27 -44 69 -73 69 -28
0 -151 -123 -247 -247 -35 -46 -66 -83 -70 -83 -4 0 -15 11 -24 25 -19 29 -42
32 -74 9 -27 -19 -28 -50 -2 -89 25 -38 25 -37 -6 -74 -21 -25 -33 -31 -65
-31 -49 0 -104 47 -177 153 -67 97 -85 135 -78 162 9 36 32 37 128 8 83 -25
91 -29 109 -65 16 -31 25 -38 49 -38 39 0 65 37 50 71 -9 22 -1 33 87 129 172
185 297 304 356 339 134 79 233 38 283 -117 27 -85 15 -347 -24 -512 -16 -69
-27 -130 -25 -136 2 -7 34 -15 71 -18 37 -4 84 -9 104 -12 64 -10 102 52 58
96 -11 11 -33 20 -50 20 -16 0 -30 1 -30 3 0 1 9 49 21 107 11 58 24 159 27
225 7 111 8 120 28 123 18 3 23 -7 43 -80 30 -116 100 -253 167 -326 112 -124
238 -156 436 -111 141 32 177 69 127 133 -24 31 -51 33 -140 10 -34 -9 -94
-17 -133 -17 -61 -2 -78 2 -118 25 -114 68 -202 249 -243 503 -21 129 -19 164
10 208 14 20 29 37 33 37 20 0 79 -108 85 -155 15 -109 152 -321 233 -360 33
-15 46 -16 136 -5 109 14 138 29 138 75 0 14 -9 34 -20 45 -19 19 -28 20 -106
14 l-84 -7 -38 40 c-31 32 -101 143 -90 143 2 0 26 -7 53 -16 30 -9 105 -18
186 -21 130 -5 137 -5 158 16 13 13 21 34 21 56 0 50 -25 62 -150 70 -174 11
-256 39 -325 112 -47 50 -68 102 -73 184 l-4 77 41 45 c22 24 41 49 41 56 0 6
-9 27 -19 47 -11 20 -17 42 -14 49 2 8 25 29 49 48 62 48 78 72 104 152 66
202 178 325 349 380 124 40 271 41 388 1z"/>
<path d="M6453 3538 c-20 -26 -22 -50 -8 -86 20 -47 40 -68 92 -99 84 -49 189
-28 228 47 13 26 13 30 -6 54 -25 31 -38 32 -72 6 -47 -37 -110 -17 -152 50
-26 41 -62 53 -82 28z"/>
<path d="M7039 3323 c-26 -7 -39 -46 -25 -74 9 -19 21 -25 53 -27 98 -7 127
-114 43 -157 -41 -21 -69 -19 -115 9 -43 26 -65 22 -85 -15 -16 -29 -5 -53 40
-84 77 -53 177 -52 248 2 37 28 82 112 82 153 0 71 -49 154 -111 186 -26 13
-94 17 -130 7z"/>
<path d="M5125 2056 c-19 -29 -13 -48 38 -108 29 -36 46 -48 66 -48 63 0 67
52 10 127 -48 61 -86 71 -114 29z"/>
<path d="M5307 1882 c-28 -31 -20 -58 29 -101 50 -43 82 -51 108 -25 27 26 18
50 -35 98 -56 50 -77 56 -102 28z"/>
<path d="M5486 1744 c-35 -34 -14 -69 67 -113 50 -27 92 -24 102 9 11 34 -3
55 -61 88 -62 36 -85 39 -108 16z"/>
<path d="M4967 3624 c-83 -69 -117 -102 -117 -118 0 -14 39 -60 113 -134 87
-87 118 -112 139 -112 26 0 48 23 48 50 0 7 -24 34 -52 61 -52 48 -53 49 -32
63 12 9 24 24 27 35 7 27 -19 61 -46 61 -25 1 -27 -2 72 78 23 18 41 42 41 53
0 24 -34 59 -58 59 -10 0 -71 -43 -135 -96z"/>
<path d="M5123 3499 c-7 -7 -13 -25 -13 -40 0 -33 12 -43 72 -58 66 -16 86
-14 98 10 20 35 4 67 -38 79 -69 19 -106 22 -119 9z"/>
<path d="M5328 3425 c-16 -36 -3 -55 53 -77 80 -31 125 -18 117 34 -4 27 -58
57 -118 65 -35 5 -41 3 -52 -22z"/>
<path d="M4767 3371 c-41 -74 -33 -111 23 -111 22 0 32 9 53 49 41 74 33 111
-23 111 -22 0 -32 -9 -53 -49z"/>
<path d="M5546 3351 c-27 -30 -16 -53 39 -83 62 -34 90 -35 110 -4 22 33 12
48 -51 79 -65 32 -76 33 -98 8z"/>
<path d="M5736 3229 c-20 -29 -13 -42 46 -88 43 -35 52 -39 73 -29 46 21 43
48 -11 95 -54 47 -85 54 -108 22z"/>
<path d="M4711 3196 c-6 -7 -14 -41 -17 -74 -8 -69 3 -92 42 -92 30 0 50 32
58 93 5 39 2 51 -14 67 -23 23 -53 26 -69 6z"/>
<path d="M4700 2952 c-20 -17 -21 -21 -11 -76 13 -70 24 -86 61 -86 46 0 54
20 40 95 -16 83 -44 104 -90 67z"/>
<path d="M795 2935 c-41 -40 -33 -72 36 -154 39 -47 59 -78 56 -89 -3 -9 -26
-66 -52 -127 -65 -155 -123 -331 -152 -465 -19 -90 -26 -156 -30 -305 -9 -300
26 -515 136 -838 71 -206 111 -425 111 -603 0 -81 42 -119 111 -101 47 12 54
49 40 209 -16 190 -57 388 -126 598 -99 302 -132 507 -122 750 9 213 49 382
149 634 l52 129 44 -49 c68 -75 233 -281 311 -388 81 -113 95 -147 110 -280
23 -202 63 -311 193 -526 92 -152 143 -253 193 -383 38 -99 60 -127 102 -127
35 0 76 42 75 76 -2 68 -126 340 -238 520 -123 200 -156 290 -179 490 -9 75
-22 151 -30 170 -47 112 -339 481 -677 852 -37 40 -78 43 -113 7z"/>
<path d="M3900 1866 l0 -105 83 -64 c358 -279 828 -519 1254 -641 437 -126
983 -180 1458 -146 812 59 1552 330 2105 771 l100 79 0 105 0 106 -89 -77
c-635 -546 -1472 -835 -2421 -838 -311 -1 -499 18 -814 80 -450 90 -918 285
-1306 544 -96 64 -270 199 -330 254 l-40 37 0 -105z"/>
<path d="M6747 1606 c-8 -8 -17 -41 -21 -73 -6 -48 -4 -60 11 -70 45 -34 80
-6 89 71 6 51 4 61 -11 72 -24 18 -50 18 -68 0z"/>
<path d="M6500 1570 c-33 -33 -25 -58 43 -121 49 -46 58 -58 42 -59 -12 0 -26
-5 -33 -12 -19 -19 -14 -66 8 -80 19 -12 18 -15 -31 -60 -41 -38 -50 -51 -47
-74 3 -33 42 -58 67 -44 9 5 62 53 119 107 78 75 102 104 102 124 0 19 -27 52
-109 132 -59 59 -115 107 -125 107 -9 0 -25 -9 -36 -20z"/>
<path d="M6120 1421 c-25 -48 1 -74 93 -92 51 -11 60 -10 77 6 21 19 25 41 11
63 -8 13 -112 41 -153 42 -10 0 -22 -9 -28 -19z"/>
<path d="M6350 1381 c-30 -57 -5 -81 82 -81 56 0 69 3 78 19 14 28 13 38 -10
61 -29 29 -134 29 -150 1z"/>
</g>
</svg>
